<svg width="144" height="27" fill="none" xmlns="http://www.w3.org/2000/svg"><path d="M11.404.302h5.647v26.396h-3.838V7.768l-2.805 18.93H6.569L3.543 8.032v18.666H0V.302h5.647l2.99 18.741L11.403.302zm7.686 6.335c0-2.112.528-3.746 1.586-4.902C21.734.578 23.26 0 25.253 0c1.992 0 3.518.578 4.576 1.735 1.058 1.156 1.587 2.79 1.587 4.902v13.726c0 2.112-.529 3.746-1.587 4.902C28.771 26.422 27.245 27 25.253 27c-1.993 0-3.519-.578-4.577-1.735-1.058-1.156-1.587-2.79-1.587-4.902V6.637zm4.059 13.99c0 1.735.701 2.602 2.104 2.602 1.402 0 2.103-.867 2.103-2.602V6.373c0-1.735-.701-2.602-2.104-2.602-1.402 0-2.103.867-2.103 2.602v14.254zM39.893.302c2.018 0 3.531.553 4.54 1.659 1.008 1.106 1.513 2.728 1.513 4.864v13.35c0 2.136-.505 3.758-1.513 4.864-1.009 1.106-2.522 1.66-4.54 1.66h-6.422V.301h6.422zm-2.362 22.625h2.288c.665 0 1.17-.2 1.514-.603.369-.402.553-1.056.553-1.96V6.636c0-.905-.184-1.559-.553-1.961-.345-.402-.85-.603-1.514-.603h-2.288v18.854zm20.056-11.501v3.77h-5.573v7.731h7.012v3.771H47.954V.302h11.072v3.77h-7.012v7.354h5.573zm11.861 15.272a6.163 6.163 0 01-.296-1.206c-.049-.378-.073-1.056-.073-2.037v-4.148c0-1.206-.21-2.061-.628-2.564-.418-.528-1.095-.792-2.03-.792H65.02v10.747h-4.06V.302h6.127c2.091 0 3.617.502 4.576 1.508.96.98 1.44 2.501 1.44 4.563v2.074c0 2.715-.886 4.5-2.658 5.355a3.771 3.771 0 012.067 2.036c.418.93.627 2.124.627 3.582v4.073c0 .754.025 1.37.074 1.848.05.452.172.905.37 1.357h-4.134zm-4.43-14.518h1.588c.812 0 1.415-.213 1.808-.64.419-.428.628-1.145.628-2.15V6.788c0-.956-.172-1.647-.517-2.074-.32-.428-.837-.641-1.55-.641h-1.956v8.107zm13.825 14.518h-3.654V.302h5.093l4.17 15.8V.302h3.617v26.396H83.9L78.843 7.58v19.118zm21.329-20.061c0-2.137.505-3.771 1.513-4.902C102.694.578 104.183 0 106.151 0s3.457.578 4.466 1.735c1.009 1.13 1.513 2.765 1.513 4.902v.83h-3.838V6.372c0-.905-.173-1.559-.517-1.961-.344-.427-.849-.641-1.513-.641-.665 0-1.169.214-1.513.641-.345.402-.517 1.056-.517 1.96 0 1.107.283 2.075.849 2.905.59.83 1.464 1.772 2.62 2.828.96.905 1.735 1.71 2.325 2.413.591.679 1.095 1.508 1.513 2.489.419.98.628 2.1.628 3.356 0 2.137-.517 3.784-1.55 4.94-1.034 1.131-2.534 1.697-4.503 1.697-1.968 0-3.469-.566-4.502-1.697-1.034-1.156-1.551-2.803-1.551-4.94v-1.621h3.839v1.885c0 1.71.701 2.564 2.103 2.564 1.403 0 2.104-.854 2.104-2.564 0-1.106-.295-2.074-.886-2.903-.566-.83-1.427-1.773-2.583-2.829-.96-.905-1.735-1.697-2.325-2.375-.591-.704-1.095-1.546-1.513-2.527-.419-.98-.628-2.1-.628-3.356zM117.97.302v26.396h-4.06V.302h4.06zm13.753 0v3.77h-4.244v22.626h-4.06V4.073h-4.245V.302h12.549zm10.838 11.124v3.77h-5.573v7.731H144v3.771h-11.072V.302H144v3.77h-7.012v7.354h5.573z" fill="#1F2124"/></svg>